<?xml version="1.0" standalone="no"?>
<!DOCTYPE svg PUBLIC "-//W3C//DTD SVG 20010904//EN"
 "http://www.w3.org/TR/2001/REC-SVG-20010904/DTD/svg10.dtd">
<svg version="1.0" xmlns="http://www.w3.org/2000/svg"
 width="700.000000pt" height="700.000000pt" viewBox="0 0 700.000000 700.000000"
 preserveAspectRatio="xMidYMid meet">
<metadata>
Created by potrace 1.14, written by Peter Selinger 2001-2017
</metadata>
<g transform="translate(0.000000,700.000000) scale(0.100000,-0.100000)"
fill="#000000" stroke="none">
<path d="M3249 6900 c-1 -3 -1 -8 0 -12 0 -5 -22 -8 -50 -8 -35 0 -48 -3 -43
-11 5 -8 2 -9 -9 -3 -18 11 -119 5 -112 -6 2 -4 -7 -5 -20 -2 -13 2 -53 -1
-87 -7 -35 -6 -81 -13 -103 -16 -22 -4 -48 -8 -57 -11 -9 -3 -27 -7 -40 -9
-13 -3 -36 -8 -53 -12 -35 -8 -31 -7 -75 -17 -176 -39 -628 -206 -614 -227 3
-5 -3 -6 -12 -2 -12 4 -15 3 -10 -5 5 -8 2 -10 -8 -6 -17 7 -77 -26 -70 -38 3
-4 -1 -5 -9 -2 -17 6 -100 -40 -90 -51 5 -4 2 -5 -5 -1 -12 7 -68 -22 -217
-118 -72 -45 -252 -172 -265 -186 -3 -3 -27 -23 -55 -45 -132 -104 -360 -332
-476 -475 -123 -153 -269 -357 -269 -379 0 -5 -4 -11 -8 -13 -9 -3 -91 -147
-145 -254 -74 -148 -200 -469 -211 -536 -1 -7 -4 -17 -8 -23 -5 -9 -44 -160
-54 -210 -2 -11 -8 -42 -14 -70 -15 -78 -20 -105 -30 -180 -5 -38 -12 -88 -16
-110 -10 -63 -13 -594 -3 -660 4 -33 15 -109 24 -170 12 -86 60 -318 79 -380
1 -5 8 -30 15 -55 63 -231 219 -596 328 -768 18 -29 33 -55 33 -58 0 -15 236
-354 260 -374 3 -3 13 -14 21 -26 53 -79 312 -346 439 -455 41 -35 77 -66 80
-69 39 -39 268 -198 394 -275 119 -71 328 -179 426 -218 65 -27 93 -38 110
-46 18 -9 253 -84 330 -105 60 -17 220 -51 287 -61 200 -29 257 -35 443 -41
108 -3 150 -2 140 5 -9 7 -10 11 -3 11 6 0 14 -4 17 -8 3 -5 22 -7 43 -6 21 1
57 3 81 3 24 1 41 5 38 10 -7 10 20 9 30 -2 10 -10 26 -9 20 1 -2 4 11 6 31 4
21 -3 33 -1 30 5 -3 5 0 10 8 10 8 0 12 -3 11 -6 -2 -3 16 -4 41 -2 25 2 41 6
35 10 -5 3 17 7 50 8 32 1 67 7 76 15 13 11 14 11 7 -1 -6 -11 -4 -13 11 -7
10 4 30 10 44 12 23 4 38 7 95 18 11 3 39 9 63 14 23 5 42 6 42 1 0 -27 312
45 540 125 653 229 1235 665 1625 1221 27 39 52 72 55 75 23 19 182 297 250
435 69 142 173 403 184 460 1 6 15 49 30 98 30 99 79 323 96 442 21 151 25
220 25 460 0 207 -4 298 -20 415 -2 14 -6 47 -9 74 -4 27 -8 51 -10 55 -2 3
-7 29 -10 56 -4 28 -19 100 -33 160 -15 61 -27 112 -28 115 -7 34 -70 239 -85
275 -4 11 -24 61 -43 110 -19 50 -49 119 -66 156 -16 36 -35 76 -41 90 -16 38
-86 166 -138 252 -26 43 -51 87 -57 98 -5 10 -13 19 -17 19 -5 0 -8 4 -8 10 0
12 -101 154 -181 255 -218 275 -474 513 -755 703 -321 216 -743 395 -1109 468
-40 8 -142 25 -205 35 -114 16 -124 17 -205 24 -44 4 -89 9 -99 11 -48 9 -625
22 -627 14z m38 -16 c-3 -3 -12 -4 -19 -1 -8 3 -5 6 6 6 11 1 17 -2 13 -5z
m-287 -38 c0 -2 -7 -6 -15 -10 -8 -3 -15 -1 -15 4 0 6 7 10 15 10 8 0 15 -2
15 -4z m-70 -17 c-19 -4 -48 -10 -65 -13 -143 -25 -373 -82 -527 -132 -153
-50 -146 -48 -128 -36 48 32 457 148 590 168 14 2 45 7 70 13 59 12 110 12 60
0z m-755 -199 c-27 -12 -43 -12 -25 0 8 5 22 9 30 9 10 0 8 -3 -5 -9z m-50
-20 c-3 -5 -12 -10 -18 -10 -7 0 -6 4 3 10 19 12 23 12 15 0z m-65 -24 c0 -2
-7 -7 -16 -10 -8 -3 -12 -2 -9 4 6 10 25 14 25 6z m3535 -526 c10 -11 16 -20
13 -20 -3 0 -13 9 -23 20 -10 11 -16 20 -13 20 3 0 13 -9 23 -20z m90 -75 c27
-25 46 -45 43 -45 -4 0 -30 20 -58 45 -28 25 -47 45 -43 45 4 -1 30 -21 58
-45z m156 -153 c174 -180 311 -353 433 -544 24 -39 32 -59 24 -64 -7 -4 -8 -3
-4 4 4 7 3 12 -2 12 -6 0 -22 20 -36 43 -82 141 -305 424 -450 570 -42 42 -73
77 -68 77 5 0 51 -44 103 -98z m450 -4085 c-10 -9 -11 -8 -5 6 3 10 9 15 12
12 3 -3 0 -11 -7 -18z m-177 -262 c-14 -19 -29 -35 -31 -35 -5 0 7 18 36 53
26 31 23 18 -5 -18z m-74 -97 c-81 -102 -126 -153 -225 -253 -95 -96 -86 -84
34 43 29 31 91 103 138 160 90 106 125 141 53 50z m-340 -361 c0 -2 -19 -21
-42 -42 l-43 -40 40 43 c36 39 45 47 45 39z m-90 -80 c0 -2 -15 -16 -32 -33
l-33 -29 29 33 c28 30 36 37 36 29z m-70 -61 c0 -2 -8 -10 -17 -17 -16 -13
-17 -12 -4 4 13 16 21 21 21 13z m-660 -450 c0 -2 -7 -7 -16 -10 -8 -3 -12 -2
-9 4 6 10 25 14 25 6z m-55 -29 c-85 -57 -518 -208 -559 -194 -6 2 14 10 44
17 113 26 381 120 465 163 55 27 81 35 50 14z m-575 -197 c0 -5 -8 -10 -17
-10 -15 0 -16 2 -3 10 19 12 20 12 20 0z"/>
</g>
</svg>
